{"title":"Samson (Andrzej Wajda, 1961)","uid":7940526,"size":1256796205,"categoryP":"video","categoryS":"movies","magnet":"?xt=urn:btih:cbae0e2ff909dd2550d5ea9441854c2d37a72f5a&amp;dn=Samson+%28Andrzej+Wajda%2C+1961%29&amp;tr=udp%3A%2F%2Ftracker.openbittorrent.com%3A80&amp;tr=udp%3A%2F%2Fopen.demonii.com%3A1337&amp;tr=udp%3A%2F%2Ftracker.coppersurfer.tk%3A6969&amp;tr=udp%3A%2F%2Fexodus.desync.com%3A6969","seeders":0,"leechers":1,"uploader":"moonflux","files":-1,"time":1355966448,"description":"Complete name : Samson - WajdaSamson - part 01.avi\nFormat : AVI\nFormat/Info : Audio Video Interleave\nFile size : 599 MiB\nDuration : 59mn 52s\nOverall bit rate : 1 399 Kbps\nWriting application : VirtualDubMod 1.5.4.1 (build 2178/release)\nWriting library : VirtualDubMod build 2178/release\n\nVideo\nFormat : MPEG-4 Visual\nFormat profile : Streaming Video@L1\nFormat settings, BVOP : Yes\nFormat settings, QPel : No\nFormat settings, GMC : No warppoints\nFormat settings, Matrix : Custom\nCodec ID : XVID\nCodec ID/Hint : XviD\nDuration : 59mn 52s\nBit rate : 1 166 Kbps\nWidth : 640 pixels\nHeight : 304 pixels\nDisplay aspect ratio : 2.2\nFrame rate : 29.970 fps\nResolution : 24 bits\nColorimetry : 4:2:0\nScan type : Progressive\nBits/(Pixel*Frame) : 0.200\nStream size : 499 MiB (83%)\nWriting library : XviD 1.2.1 (UTC 2008-12-04)\n\nAudio\nFormat : MPEG Audio\nFormat version : Version 1\nFormat profile : Layer 3\nCodec ID : 55\nCodec ID/Hint : MP3\nDuration : 59mn 52s\nBit rate mode : Constant\nBit rate : 224 Kbps\nMinimum bit rate : 224 Kbps\nChannel(s) : 2 channels\nSampling rate : 48.0 KHz\nResolution : 16 bits\nStream size : 95.9 MiB (16%)\nAlignment : Aligned on interleaves\nInterleave, duration : 67 ms (2.00 video frames)\nInterleave, preload duration : 504 ms\nWriting library : LAME3.98r\nEncoding settings : CBR\nLanguage : English\n\n===============================\nComplete name : Samson - WajdaSamson - part 02.avi\nFormat : AVI\nFormat/Info : Audio Video Interleave\nFile size : 600 MiB\nDuration : 52mn 40s\nOverall bit rate : 1 592 Kbps\nWriting application : VirtualDubMod 1.5.4.1 (build 2178/release)\nWriting library : VirtualDubMod build 2178/release\n\nVideo\nFormat : MPEG-4 Visual\nFormat profile : Streaming Video@L1\nFormat settings, BVOP : Yes\nFormat settings, QPel : No\nFormat settings, GMC : No warppoints\nFormat settings, Matrix : Custom\nCodec ID : XVID\nCodec ID/Hint : XviD\nDuration : 52mn 40s\nBit rate : 1 359 Kbps\nWidth : 640 pixels\nHeight : 304 pixels\nDisplay aspect ratio : 2.2\nFrame rate : 29.970 fps\nResolution : 24 bits\nColorimetry : 4:2:0\nScan type : Progressive\nBits/(Pixel*Frame) : 0.233\nStream size : 512 MiB (85%)\nWriting library : XviD 1.2.1 (UTC 2008-12-04)\n\nAudio\nFormat : MPEG Audio\nFormat version : Version 1\nFormat profile : Layer 3\nCodec ID : 55\nCodec ID/Hint : MP3\nDuration : 52mn 40s\nBit rate mode : Constant\nBit rate : 224 Kbps\nMinimum bit rate : 224 Kbps\nChannel(s) : 2 channels\nSampling rate : 48.0 KHz\nResolution : 16 bits\nStream size : 84.4 MiB (14%)\nAlignment : Aligned on interleaves\nInterleave, duration : 67 ms (2.00 video frames)\nInterleave, preload duration : 504 ms\nWriting library : LAME3.98r\nEncoding settings : CBR\nLanguage : English\n","torrent":{"xt":"urn:btih:cbae0e2ff909dd2550d5ea9441854c2d37a72f5a","amp;dn":"Samson+%28Andrzej+Wajda%2C+1961%29","amp;tr":["udp%3A%2F%2Ftracker.openbittorrent.com%3A80","udp%3A%2F%2Fopen.demonii.com%3A1337","udp%3A%2F%2Ftracker.coppersurfer.tk%3A6969","udp%3A%2F%2Fexodus.desync.com%3A6969"],"infoHash":"cbae0e2ff909dd2550d5ea9441854c2d37a72f5a","infoHashBuffer":{"type":"Buffer","data":[203,174,14,47,249,9,221,37,80,213,234,148,65,133,76,45,55,167,47,90]},"announce":[],"urlList":[]}}